<mxfile host="app.diagrams.net" modified="2024-03-19T17:34:23.237Z" agent="Mozilla/5.0 (Macintosh; Intel Mac OS X 10_15_7) AppleWebKit/537.36 (KHTML, like Gecko) Chrome/122.0.0.0 Safari/537.36 Edg/122.0.0.0" etag="yAbPqt1BikMtiKLuBkjQ" version="23.1.2" type="github">
  <diagram name="Page-1" id="A8CKlPdlSQbvUNhSut7a">
    <mxGraphModel dx="2095" dy="1342" grid="1" gridSize="10" guides="1" tooltips="1" connect="1" arrows="1" fold="1" page="1" pageScale="1" pageWidth="827" pageHeight="1169" math="0" shadow="0">
      <root>
        <mxCell id="0" />
        <mxCell id="1" parent="0" />
        <mxCell id="wyNzjHrCBUUMBbqxbBF1-1" value="" style="shape=table;startSize=0;container=1;collapsible=0;childLayout=tableLayout;fontSize=16;" parent="1" vertex="1">
          <mxGeometry x="150" y="320" width="467" height="100" as="geometry" />
        </mxCell>
        <mxCell id="wyNzjHrCBUUMBbqxbBF1-17" style="shape=tableRow;horizontal=0;startSize=0;swimlaneHead=0;swimlaneBody=0;strokeColor=inherit;top=0;left=0;bottom=0;right=0;collapsible=0;dropTarget=0;fillColor=none;points=[[0,0.5],[1,0.5]];portConstraint=eastwest;fontSize=16;" parent="wyNzjHrCBUUMBbqxbBF1-1" vertex="1">
          <mxGeometry width="467" height="20" as="geometry" />
        </mxCell>
        <mxCell id="wyNzjHrCBUUMBbqxbBF1-18" style="shape=partialRectangle;html=1;whiteSpace=wrap;connectable=0;strokeColor=inherit;overflow=hidden;fillColor=none;top=0;left=0;bottom=0;right=0;pointerEvents=1;fontSize=16;" parent="wyNzjHrCBUUMBbqxbBF1-17" vertex="1">
          <mxGeometry width="117" height="20" as="geometry">
            <mxRectangle width="117" height="20" as="alternateBounds" />
          </mxGeometry>
        </mxCell>
        <mxCell id="wyNzjHrCBUUMBbqxbBF1-19" style="shape=partialRectangle;html=1;whiteSpace=wrap;connectable=0;strokeColor=inherit;overflow=hidden;fillColor=none;top=0;left=0;bottom=0;right=0;pointerEvents=1;fontSize=16;" parent="wyNzjHrCBUUMBbqxbBF1-17" vertex="1">
          <mxGeometry x="117" width="117" height="20" as="geometry">
            <mxRectangle width="117" height="20" as="alternateBounds" />
          </mxGeometry>
        </mxCell>
        <mxCell id="wyNzjHrCBUUMBbqxbBF1-20" style="shape=partialRectangle;html=1;whiteSpace=wrap;connectable=0;strokeColor=inherit;overflow=hidden;fillColor=none;top=0;left=0;bottom=0;right=0;pointerEvents=1;fontSize=16;" parent="wyNzjHrCBUUMBbqxbBF1-17" vertex="1">
          <mxGeometry x="234" width="116" height="20" as="geometry">
            <mxRectangle width="116" height="20" as="alternateBounds" />
          </mxGeometry>
        </mxCell>
        <mxCell id="wyNzjHrCBUUMBbqxbBF1-21" style="shape=partialRectangle;html=1;whiteSpace=wrap;connectable=0;strokeColor=inherit;overflow=hidden;fillColor=none;top=0;left=0;bottom=0;right=0;pointerEvents=1;fontSize=16;" parent="wyNzjHrCBUUMBbqxbBF1-17" vertex="1">
          <mxGeometry x="350" width="117" height="20" as="geometry">
            <mxRectangle width="117" height="20" as="alternateBounds" />
          </mxGeometry>
        </mxCell>
        <mxCell id="wyNzjHrCBUUMBbqxbBF1-2" value="" style="shape=tableRow;horizontal=0;startSize=0;swimlaneHead=0;swimlaneBody=0;strokeColor=inherit;top=0;left=0;bottom=0;right=0;collapsible=0;dropTarget=0;fillColor=none;points=[[0,0.5],[1,0.5]];portConstraint=eastwest;fontSize=16;" parent="wyNzjHrCBUUMBbqxbBF1-1" vertex="1">
          <mxGeometry y="20" width="467" height="20" as="geometry" />
        </mxCell>
        <mxCell id="wyNzjHrCBUUMBbqxbBF1-14" style="shape=partialRectangle;html=1;whiteSpace=wrap;connectable=0;strokeColor=inherit;overflow=hidden;fillColor=none;top=0;left=0;bottom=0;right=0;pointerEvents=1;fontSize=16;" parent="wyNzjHrCBUUMBbqxbBF1-2" vertex="1">
          <mxGeometry width="117" height="20" as="geometry">
            <mxRectangle width="117" height="20" as="alternateBounds" />
          </mxGeometry>
        </mxCell>
        <mxCell id="wyNzjHrCBUUMBbqxbBF1-3" value="" style="shape=partialRectangle;html=1;whiteSpace=wrap;connectable=0;strokeColor=inherit;overflow=hidden;fillColor=none;top=0;left=0;bottom=0;right=0;pointerEvents=1;fontSize=16;" parent="wyNzjHrCBUUMBbqxbBF1-2" vertex="1">
          <mxGeometry x="117" width="117" height="20" as="geometry">
            <mxRectangle width="117" height="20" as="alternateBounds" />
          </mxGeometry>
        </mxCell>
        <mxCell id="wyNzjHrCBUUMBbqxbBF1-4" value="" style="shape=partialRectangle;html=1;whiteSpace=wrap;connectable=0;strokeColor=inherit;overflow=hidden;fillColor=none;top=0;left=0;bottom=0;right=0;pointerEvents=1;fontSize=16;" parent="wyNzjHrCBUUMBbqxbBF1-2" vertex="1">
          <mxGeometry x="234" width="116" height="20" as="geometry">
            <mxRectangle width="116" height="20" as="alternateBounds" />
          </mxGeometry>
        </mxCell>
        <mxCell id="wyNzjHrCBUUMBbqxbBF1-5" value="" style="shape=partialRectangle;html=1;whiteSpace=wrap;connectable=0;strokeColor=inherit;overflow=hidden;fillColor=none;top=0;left=0;bottom=0;right=0;pointerEvents=1;fontSize=16;" parent="wyNzjHrCBUUMBbqxbBF1-2" vertex="1">
          <mxGeometry x="350" width="117" height="20" as="geometry">
            <mxRectangle width="117" height="20" as="alternateBounds" />
          </mxGeometry>
        </mxCell>
        <mxCell id="wyNzjHrCBUUMBbqxbBF1-6" value="" style="shape=tableRow;horizontal=0;startSize=0;swimlaneHead=0;swimlaneBody=0;strokeColor=inherit;top=0;left=0;bottom=0;right=0;collapsible=0;dropTarget=0;fillColor=none;points=[[0,0.5],[1,0.5]];portConstraint=eastwest;fontSize=16;" parent="wyNzjHrCBUUMBbqxbBF1-1" vertex="1">
          <mxGeometry y="40" width="467" height="20" as="geometry" />
        </mxCell>
        <mxCell id="wyNzjHrCBUUMBbqxbBF1-15" style="shape=partialRectangle;html=1;whiteSpace=wrap;connectable=0;strokeColor=inherit;overflow=hidden;fillColor=none;top=0;left=0;bottom=0;right=0;pointerEvents=1;fontSize=16;" parent="wyNzjHrCBUUMBbqxbBF1-6" vertex="1">
          <mxGeometry width="117" height="20" as="geometry">
            <mxRectangle width="117" height="20" as="alternateBounds" />
          </mxGeometry>
        </mxCell>
        <mxCell id="wyNzjHrCBUUMBbqxbBF1-7" value="" style="shape=partialRectangle;html=1;whiteSpace=wrap;connectable=0;strokeColor=inherit;overflow=hidden;fillColor=none;top=0;left=0;bottom=0;right=0;pointerEvents=1;fontSize=16;" parent="wyNzjHrCBUUMBbqxbBF1-6" vertex="1">
          <mxGeometry x="117" width="117" height="20" as="geometry">
            <mxRectangle width="117" height="20" as="alternateBounds" />
          </mxGeometry>
        </mxCell>
        <mxCell id="wyNzjHrCBUUMBbqxbBF1-8" value="" style="shape=partialRectangle;html=1;whiteSpace=wrap;connectable=0;strokeColor=inherit;overflow=hidden;fillColor=none;top=0;left=0;bottom=0;right=0;pointerEvents=1;fontSize=16;" parent="wyNzjHrCBUUMBbqxbBF1-6" vertex="1">
          <mxGeometry x="234" width="116" height="20" as="geometry">
            <mxRectangle width="116" height="20" as="alternateBounds" />
          </mxGeometry>
        </mxCell>
        <mxCell id="wyNzjHrCBUUMBbqxbBF1-9" value="" style="shape=partialRectangle;html=1;whiteSpace=wrap;connectable=0;strokeColor=inherit;overflow=hidden;fillColor=none;top=0;left=0;bottom=0;right=0;pointerEvents=1;fontSize=16;" parent="wyNzjHrCBUUMBbqxbBF1-6" vertex="1">
          <mxGeometry x="350" width="117" height="20" as="geometry">
            <mxRectangle width="117" height="20" as="alternateBounds" />
          </mxGeometry>
        </mxCell>
        <mxCell id="wyNzjHrCBUUMBbqxbBF1-10" value="" style="shape=tableRow;horizontal=0;startSize=0;swimlaneHead=0;swimlaneBody=0;strokeColor=inherit;top=0;left=0;bottom=0;right=0;collapsible=0;dropTarget=0;fillColor=none;points=[[0,0.5],[1,0.5]];portConstraint=eastwest;fontSize=16;" parent="wyNzjHrCBUUMBbqxbBF1-1" vertex="1">
          <mxGeometry y="60" width="467" height="20" as="geometry" />
        </mxCell>
        <mxCell id="wyNzjHrCBUUMBbqxbBF1-16" style="shape=partialRectangle;html=1;whiteSpace=wrap;connectable=0;strokeColor=inherit;overflow=hidden;fillColor=none;top=0;left=0;bottom=0;right=0;pointerEvents=1;fontSize=16;" parent="wyNzjHrCBUUMBbqxbBF1-10" vertex="1">
          <mxGeometry width="117" height="20" as="geometry">
            <mxRectangle width="117" height="20" as="alternateBounds" />
          </mxGeometry>
        </mxCell>
        <mxCell id="wyNzjHrCBUUMBbqxbBF1-11" value="" style="shape=partialRectangle;html=1;whiteSpace=wrap;connectable=0;strokeColor=inherit;overflow=hidden;fillColor=none;top=0;left=0;bottom=0;right=0;pointerEvents=1;fontSize=16;" parent="wyNzjHrCBUUMBbqxbBF1-10" vertex="1">
          <mxGeometry x="117" width="117" height="20" as="geometry">
            <mxRectangle width="117" height="20" as="alternateBounds" />
          </mxGeometry>
        </mxCell>
        <mxCell id="wyNzjHrCBUUMBbqxbBF1-12" value="" style="shape=partialRectangle;html=1;whiteSpace=wrap;connectable=0;strokeColor=inherit;overflow=hidden;fillColor=none;top=0;left=0;bottom=0;right=0;pointerEvents=1;fontSize=16;" parent="wyNzjHrCBUUMBbqxbBF1-10" vertex="1">
          <mxGeometry x="234" width="116" height="20" as="geometry">
            <mxRectangle width="116" height="20" as="alternateBounds" />
          </mxGeometry>
        </mxCell>
        <mxCell id="wyNzjHrCBUUMBbqxbBF1-13" value="" style="shape=partialRectangle;html=1;whiteSpace=wrap;connectable=0;strokeColor=inherit;overflow=hidden;fillColor=none;top=0;left=0;bottom=0;right=0;pointerEvents=1;fontSize=16;" parent="wyNzjHrCBUUMBbqxbBF1-10" vertex="1">
          <mxGeometry x="350" width="117" height="20" as="geometry">
            <mxRectangle width="117" height="20" as="alternateBounds" />
          </mxGeometry>
        </mxCell>
        <mxCell id="wyNzjHrCBUUMBbqxbBF1-22" style="shape=tableRow;horizontal=0;startSize=0;swimlaneHead=0;swimlaneBody=0;strokeColor=inherit;top=0;left=0;bottom=0;right=0;collapsible=0;dropTarget=0;fillColor=none;points=[[0,0.5],[1,0.5]];portConstraint=eastwest;fontSize=16;" parent="wyNzjHrCBUUMBbqxbBF1-1" vertex="1">
          <mxGeometry y="80" width="467" height="20" as="geometry" />
        </mxCell>
        <mxCell id="wyNzjHrCBUUMBbqxbBF1-23" style="shape=partialRectangle;html=1;whiteSpace=wrap;connectable=0;strokeColor=inherit;overflow=hidden;fillColor=none;top=0;left=0;bottom=0;right=0;pointerEvents=1;fontSize=16;" parent="wyNzjHrCBUUMBbqxbBF1-22" vertex="1">
          <mxGeometry width="117" height="20" as="geometry">
            <mxRectangle width="117" height="20" as="alternateBounds" />
          </mxGeometry>
        </mxCell>
        <mxCell id="wyNzjHrCBUUMBbqxbBF1-24" style="shape=partialRectangle;html=1;whiteSpace=wrap;connectable=0;strokeColor=inherit;overflow=hidden;fillColor=none;top=0;left=0;bottom=0;right=0;pointerEvents=1;fontSize=16;" parent="wyNzjHrCBUUMBbqxbBF1-22" vertex="1">
          <mxGeometry x="117" width="117" height="20" as="geometry">
            <mxRectangle width="117" height="20" as="alternateBounds" />
          </mxGeometry>
        </mxCell>
        <mxCell id="wyNzjHrCBUUMBbqxbBF1-25" style="shape=partialRectangle;html=1;whiteSpace=wrap;connectable=0;strokeColor=inherit;overflow=hidden;fillColor=none;top=0;left=0;bottom=0;right=0;pointerEvents=1;fontSize=16;" parent="wyNzjHrCBUUMBbqxbBF1-22" vertex="1">
          <mxGeometry x="234" width="116" height="20" as="geometry">
            <mxRectangle width="116" height="20" as="alternateBounds" />
          </mxGeometry>
        </mxCell>
        <mxCell id="wyNzjHrCBUUMBbqxbBF1-26" style="shape=partialRectangle;html=1;whiteSpace=wrap;connectable=0;strokeColor=inherit;overflow=hidden;fillColor=none;top=0;left=0;bottom=0;right=0;pointerEvents=1;fontSize=16;" parent="wyNzjHrCBUUMBbqxbBF1-22" vertex="1">
          <mxGeometry x="350" width="117" height="20" as="geometry">
            <mxRectangle width="117" height="20" as="alternateBounds" />
          </mxGeometry>
        </mxCell>
        <mxCell id="wyNzjHrCBUUMBbqxbBF1-27" value="Time" style="text;html=1;align=center;verticalAlign=middle;resizable=0;points=[];autosize=1;strokeColor=none;fillColor=none;fontSize=20;fontFamily=Times New Roman;" parent="1" vertex="1">
          <mxGeometry x="560" y="410" width="70" height="40" as="geometry" />
        </mxCell>
        <mxCell id="wyNzjHrCBUUMBbqxbBF1-28" value="frequency" style="text;html=1;align=center;verticalAlign=middle;resizable=0;points=[];autosize=1;strokeColor=none;fillColor=none;fontSize=20;fontFamily=Times New Roman;rotation=-90;" parent="1" vertex="1">
          <mxGeometry x="75" y="350" width="100" height="40" as="geometry" />
        </mxCell>
        <mxCell id="wyNzjHrCBUUMBbqxbBF1-29" value="" style="shape=table;startSize=0;container=1;collapsible=0;childLayout=tableLayout;fontSize=16;" parent="1" vertex="1">
          <mxGeometry x="715" y="320" width="460" height="120" as="geometry" />
        </mxCell>
        <mxCell id="wyNzjHrCBUUMBbqxbBF1-30" value="" style="shape=tableRow;horizontal=0;startSize=0;swimlaneHead=0;swimlaneBody=0;strokeColor=inherit;top=0;left=0;bottom=0;right=0;collapsible=0;dropTarget=0;fillColor=none;points=[[0,0.5],[1,0.5]];portConstraint=eastwest;fontSize=16;" parent="wyNzjHrCBUUMBbqxbBF1-29" vertex="1">
          <mxGeometry width="460" height="40" as="geometry" />
        </mxCell>
        <mxCell id="wyNzjHrCBUUMBbqxbBF1-104" style="shape=partialRectangle;html=1;whiteSpace=wrap;connectable=0;strokeColor=inherit;overflow=hidden;fillColor=none;top=0;left=0;bottom=0;right=0;pointerEvents=1;fontSize=16;" parent="wyNzjHrCBUUMBbqxbBF1-30" vertex="1">
          <mxGeometry width="20" height="40" as="geometry">
            <mxRectangle width="20" height="40" as="alternateBounds" />
          </mxGeometry>
        </mxCell>
        <mxCell id="wyNzjHrCBUUMBbqxbBF1-101" style="shape=partialRectangle;html=1;whiteSpace=wrap;connectable=0;strokeColor=inherit;overflow=hidden;fillColor=none;top=0;left=0;bottom=0;right=0;pointerEvents=1;fontSize=16;" parent="wyNzjHrCBUUMBbqxbBF1-30" vertex="1">
          <mxGeometry x="20" width="20" height="40" as="geometry">
            <mxRectangle width="20" height="40" as="alternateBounds" />
          </mxGeometry>
        </mxCell>
        <mxCell id="wyNzjHrCBUUMBbqxbBF1-98" style="shape=partialRectangle;html=1;whiteSpace=wrap;connectable=0;strokeColor=inherit;overflow=hidden;fillColor=none;top=0;left=0;bottom=0;right=0;pointerEvents=1;fontSize=16;" parent="wyNzjHrCBUUMBbqxbBF1-30" vertex="1">
          <mxGeometry x="40" width="20" height="40" as="geometry">
            <mxRectangle width="20" height="40" as="alternateBounds" />
          </mxGeometry>
        </mxCell>
        <mxCell id="wyNzjHrCBUUMBbqxbBF1-95" style="shape=partialRectangle;html=1;whiteSpace=wrap;connectable=0;strokeColor=inherit;overflow=hidden;fillColor=none;top=0;left=0;bottom=0;right=0;pointerEvents=1;fontSize=16;" parent="wyNzjHrCBUUMBbqxbBF1-30" vertex="1">
          <mxGeometry x="60" width="20" height="40" as="geometry">
            <mxRectangle width="20" height="40" as="alternateBounds" />
          </mxGeometry>
        </mxCell>
        <mxCell id="wyNzjHrCBUUMBbqxbBF1-92" style="shape=partialRectangle;html=1;whiteSpace=wrap;connectable=0;strokeColor=inherit;overflow=hidden;fillColor=none;top=0;left=0;bottom=0;right=0;pointerEvents=1;fontSize=16;" parent="wyNzjHrCBUUMBbqxbBF1-30" vertex="1">
          <mxGeometry x="80" width="20" height="40" as="geometry">
            <mxRectangle width="20" height="40" as="alternateBounds" />
          </mxGeometry>
        </mxCell>
        <mxCell id="wyNzjHrCBUUMBbqxbBF1-89" style="shape=partialRectangle;html=1;whiteSpace=wrap;connectable=0;strokeColor=inherit;overflow=hidden;fillColor=none;top=0;left=0;bottom=0;right=0;pointerEvents=1;fontSize=16;" parent="wyNzjHrCBUUMBbqxbBF1-30" vertex="1">
          <mxGeometry x="100" width="20" height="40" as="geometry">
            <mxRectangle width="20" height="40" as="alternateBounds" />
          </mxGeometry>
        </mxCell>
        <mxCell id="wyNzjHrCBUUMBbqxbBF1-86" style="shape=partialRectangle;html=1;whiteSpace=wrap;connectable=0;strokeColor=inherit;overflow=hidden;fillColor=none;top=0;left=0;bottom=0;right=0;pointerEvents=1;fontSize=16;" parent="wyNzjHrCBUUMBbqxbBF1-30" vertex="1">
          <mxGeometry x="120" width="20" height="40" as="geometry">
            <mxRectangle width="20" height="40" as="alternateBounds" />
          </mxGeometry>
        </mxCell>
        <mxCell id="wyNzjHrCBUUMBbqxbBF1-83" style="shape=partialRectangle;html=1;whiteSpace=wrap;connectable=0;strokeColor=inherit;overflow=hidden;fillColor=none;top=0;left=0;bottom=0;right=0;pointerEvents=1;fontSize=16;" parent="wyNzjHrCBUUMBbqxbBF1-30" vertex="1">
          <mxGeometry x="140" width="20" height="40" as="geometry">
            <mxRectangle width="20" height="40" as="alternateBounds" />
          </mxGeometry>
        </mxCell>
        <mxCell id="wyNzjHrCBUUMBbqxbBF1-80" style="shape=partialRectangle;html=1;whiteSpace=wrap;connectable=0;strokeColor=inherit;overflow=hidden;fillColor=none;top=0;left=0;bottom=0;right=0;pointerEvents=1;fontSize=16;" parent="wyNzjHrCBUUMBbqxbBF1-30" vertex="1">
          <mxGeometry x="160" width="20" height="40" as="geometry">
            <mxRectangle width="20" height="40" as="alternateBounds" />
          </mxGeometry>
        </mxCell>
        <mxCell id="wyNzjHrCBUUMBbqxbBF1-77" style="shape=partialRectangle;html=1;whiteSpace=wrap;connectable=0;strokeColor=inherit;overflow=hidden;fillColor=none;top=0;left=0;bottom=0;right=0;pointerEvents=1;fontSize=16;" parent="wyNzjHrCBUUMBbqxbBF1-30" vertex="1">
          <mxGeometry x="180" width="20" height="40" as="geometry">
            <mxRectangle width="20" height="40" as="alternateBounds" />
          </mxGeometry>
        </mxCell>
        <mxCell id="wyNzjHrCBUUMBbqxbBF1-74" style="shape=partialRectangle;html=1;whiteSpace=wrap;connectable=0;strokeColor=inherit;overflow=hidden;fillColor=none;top=0;left=0;bottom=0;right=0;pointerEvents=1;fontSize=16;" parent="wyNzjHrCBUUMBbqxbBF1-30" vertex="1">
          <mxGeometry x="200" width="20" height="40" as="geometry">
            <mxRectangle width="20" height="40" as="alternateBounds" />
          </mxGeometry>
        </mxCell>
        <mxCell id="wyNzjHrCBUUMBbqxbBF1-71" style="shape=partialRectangle;html=1;whiteSpace=wrap;connectable=0;strokeColor=inherit;overflow=hidden;fillColor=none;top=0;left=0;bottom=0;right=0;pointerEvents=1;fontSize=16;" parent="wyNzjHrCBUUMBbqxbBF1-30" vertex="1">
          <mxGeometry x="220" width="20" height="40" as="geometry">
            <mxRectangle width="20" height="40" as="alternateBounds" />
          </mxGeometry>
        </mxCell>
        <mxCell id="wyNzjHrCBUUMBbqxbBF1-68" style="shape=partialRectangle;html=1;whiteSpace=wrap;connectable=0;strokeColor=inherit;overflow=hidden;fillColor=none;top=0;left=0;bottom=0;right=0;pointerEvents=1;fontSize=16;" parent="wyNzjHrCBUUMBbqxbBF1-30" vertex="1">
          <mxGeometry x="240" width="20" height="40" as="geometry">
            <mxRectangle width="20" height="40" as="alternateBounds" />
          </mxGeometry>
        </mxCell>
        <mxCell id="wyNzjHrCBUUMBbqxbBF1-65" style="shape=partialRectangle;html=1;whiteSpace=wrap;connectable=0;strokeColor=inherit;overflow=hidden;fillColor=none;top=0;left=0;bottom=0;right=0;pointerEvents=1;fontSize=16;" parent="wyNzjHrCBUUMBbqxbBF1-30" vertex="1">
          <mxGeometry x="260" width="20" height="40" as="geometry">
            <mxRectangle width="20" height="40" as="alternateBounds" />
          </mxGeometry>
        </mxCell>
        <mxCell id="wyNzjHrCBUUMBbqxbBF1-62" style="shape=partialRectangle;html=1;whiteSpace=wrap;connectable=0;strokeColor=inherit;overflow=hidden;fillColor=none;top=0;left=0;bottom=0;right=0;pointerEvents=1;fontSize=16;" parent="wyNzjHrCBUUMBbqxbBF1-30" vertex="1">
          <mxGeometry x="280" width="20" height="40" as="geometry">
            <mxRectangle width="20" height="40" as="alternateBounds" />
          </mxGeometry>
        </mxCell>
        <mxCell id="wyNzjHrCBUUMBbqxbBF1-59" style="shape=partialRectangle;html=1;whiteSpace=wrap;connectable=0;strokeColor=inherit;overflow=hidden;fillColor=none;top=0;left=0;bottom=0;right=0;pointerEvents=1;fontSize=16;" parent="wyNzjHrCBUUMBbqxbBF1-30" vertex="1">
          <mxGeometry x="300" width="20" height="40" as="geometry">
            <mxRectangle width="20" height="40" as="alternateBounds" />
          </mxGeometry>
        </mxCell>
        <mxCell id="wyNzjHrCBUUMBbqxbBF1-54" style="shape=partialRectangle;html=1;whiteSpace=wrap;connectable=0;strokeColor=inherit;overflow=hidden;fillColor=none;top=0;left=0;bottom=0;right=0;pointerEvents=1;fontSize=16;" parent="wyNzjHrCBUUMBbqxbBF1-30" vertex="1">
          <mxGeometry x="320" width="20" height="40" as="geometry">
            <mxRectangle width="20" height="40" as="alternateBounds" />
          </mxGeometry>
        </mxCell>
        <mxCell id="wyNzjHrCBUUMBbqxbBF1-51" style="shape=partialRectangle;html=1;whiteSpace=wrap;connectable=0;strokeColor=inherit;overflow=hidden;fillColor=none;top=0;left=0;bottom=0;right=0;pointerEvents=1;fontSize=16;" parent="wyNzjHrCBUUMBbqxbBF1-30" vertex="1">
          <mxGeometry x="340" width="20" height="40" as="geometry">
            <mxRectangle width="20" height="40" as="alternateBounds" />
          </mxGeometry>
        </mxCell>
        <mxCell id="wyNzjHrCBUUMBbqxbBF1-48" style="shape=partialRectangle;html=1;whiteSpace=wrap;connectable=0;strokeColor=inherit;overflow=hidden;fillColor=none;top=0;left=0;bottom=0;right=0;pointerEvents=1;fontSize=16;" parent="wyNzjHrCBUUMBbqxbBF1-30" vertex="1">
          <mxGeometry x="360" width="20" height="40" as="geometry">
            <mxRectangle width="20" height="40" as="alternateBounds" />
          </mxGeometry>
        </mxCell>
        <mxCell id="wyNzjHrCBUUMBbqxbBF1-45" style="shape=partialRectangle;html=1;whiteSpace=wrap;connectable=0;strokeColor=inherit;overflow=hidden;fillColor=none;top=0;left=0;bottom=0;right=0;pointerEvents=1;fontSize=16;" parent="wyNzjHrCBUUMBbqxbBF1-30" vertex="1">
          <mxGeometry x="380" width="20" height="40" as="geometry">
            <mxRectangle width="20" height="40" as="alternateBounds" />
          </mxGeometry>
        </mxCell>
        <mxCell id="wyNzjHrCBUUMBbqxbBF1-42" style="shape=partialRectangle;html=1;whiteSpace=wrap;connectable=0;strokeColor=inherit;overflow=hidden;fillColor=none;top=0;left=0;bottom=0;right=0;pointerEvents=1;fontSize=16;" parent="wyNzjHrCBUUMBbqxbBF1-30" vertex="1">
          <mxGeometry x="400" width="20" height="40" as="geometry">
            <mxRectangle width="20" height="40" as="alternateBounds" />
          </mxGeometry>
        </mxCell>
        <mxCell id="wyNzjHrCBUUMBbqxbBF1-31" value="" style="shape=partialRectangle;html=1;whiteSpace=wrap;connectable=0;strokeColor=inherit;overflow=hidden;fillColor=none;top=0;left=0;bottom=0;right=0;pointerEvents=1;fontSize=16;" parent="wyNzjHrCBUUMBbqxbBF1-30" vertex="1">
          <mxGeometry x="420" width="20" height="40" as="geometry">
            <mxRectangle width="20" height="40" as="alternateBounds" />
          </mxGeometry>
        </mxCell>
        <mxCell id="wyNzjHrCBUUMBbqxbBF1-32" value="" style="shape=partialRectangle;html=1;whiteSpace=wrap;connectable=0;strokeColor=inherit;overflow=hidden;fillColor=none;top=0;left=0;bottom=0;right=0;pointerEvents=1;fontSize=16;" parent="wyNzjHrCBUUMBbqxbBF1-30" vertex="1">
          <mxGeometry x="440" width="20" height="40" as="geometry">
            <mxRectangle width="20" height="40" as="alternateBounds" />
          </mxGeometry>
        </mxCell>
        <mxCell id="wyNzjHrCBUUMBbqxbBF1-34" value="" style="shape=tableRow;horizontal=0;startSize=0;swimlaneHead=0;swimlaneBody=0;strokeColor=inherit;top=0;left=0;bottom=0;right=0;collapsible=0;dropTarget=0;fillColor=none;points=[[0,0.5],[1,0.5]];portConstraint=eastwest;fontSize=16;" parent="wyNzjHrCBUUMBbqxbBF1-29" vertex="1">
          <mxGeometry y="40" width="460" height="40" as="geometry" />
        </mxCell>
        <mxCell id="wyNzjHrCBUUMBbqxbBF1-105" style="shape=partialRectangle;html=1;whiteSpace=wrap;connectable=0;strokeColor=inherit;overflow=hidden;fillColor=none;top=0;left=0;bottom=0;right=0;pointerEvents=1;fontSize=16;" parent="wyNzjHrCBUUMBbqxbBF1-34" vertex="1">
          <mxGeometry width="20" height="40" as="geometry">
            <mxRectangle width="20" height="40" as="alternateBounds" />
          </mxGeometry>
        </mxCell>
        <mxCell id="wyNzjHrCBUUMBbqxbBF1-102" style="shape=partialRectangle;html=1;whiteSpace=wrap;connectable=0;strokeColor=inherit;overflow=hidden;fillColor=none;top=0;left=0;bottom=0;right=0;pointerEvents=1;fontSize=16;" parent="wyNzjHrCBUUMBbqxbBF1-34" vertex="1">
          <mxGeometry x="20" width="20" height="40" as="geometry">
            <mxRectangle width="20" height="40" as="alternateBounds" />
          </mxGeometry>
        </mxCell>
        <mxCell id="wyNzjHrCBUUMBbqxbBF1-99" style="shape=partialRectangle;html=1;whiteSpace=wrap;connectable=0;strokeColor=inherit;overflow=hidden;fillColor=none;top=0;left=0;bottom=0;right=0;pointerEvents=1;fontSize=16;" parent="wyNzjHrCBUUMBbqxbBF1-34" vertex="1">
          <mxGeometry x="40" width="20" height="40" as="geometry">
            <mxRectangle width="20" height="40" as="alternateBounds" />
          </mxGeometry>
        </mxCell>
        <mxCell id="wyNzjHrCBUUMBbqxbBF1-96" style="shape=partialRectangle;html=1;whiteSpace=wrap;connectable=0;strokeColor=inherit;overflow=hidden;fillColor=none;top=0;left=0;bottom=0;right=0;pointerEvents=1;fontSize=16;" parent="wyNzjHrCBUUMBbqxbBF1-34" vertex="1">
          <mxGeometry x="60" width="20" height="40" as="geometry">
            <mxRectangle width="20" height="40" as="alternateBounds" />
          </mxGeometry>
        </mxCell>
        <mxCell id="wyNzjHrCBUUMBbqxbBF1-93" style="shape=partialRectangle;html=1;whiteSpace=wrap;connectable=0;strokeColor=inherit;overflow=hidden;fillColor=none;top=0;left=0;bottom=0;right=0;pointerEvents=1;fontSize=16;" parent="wyNzjHrCBUUMBbqxbBF1-34" vertex="1">
          <mxGeometry x="80" width="20" height="40" as="geometry">
            <mxRectangle width="20" height="40" as="alternateBounds" />
          </mxGeometry>
        </mxCell>
        <mxCell id="wyNzjHrCBUUMBbqxbBF1-90" style="shape=partialRectangle;html=1;whiteSpace=wrap;connectable=0;strokeColor=inherit;overflow=hidden;fillColor=none;top=0;left=0;bottom=0;right=0;pointerEvents=1;fontSize=16;" parent="wyNzjHrCBUUMBbqxbBF1-34" vertex="1">
          <mxGeometry x="100" width="20" height="40" as="geometry">
            <mxRectangle width="20" height="40" as="alternateBounds" />
          </mxGeometry>
        </mxCell>
        <mxCell id="wyNzjHrCBUUMBbqxbBF1-87" style="shape=partialRectangle;html=1;whiteSpace=wrap;connectable=0;strokeColor=inherit;overflow=hidden;fillColor=none;top=0;left=0;bottom=0;right=0;pointerEvents=1;fontSize=16;" parent="wyNzjHrCBUUMBbqxbBF1-34" vertex="1">
          <mxGeometry x="120" width="20" height="40" as="geometry">
            <mxRectangle width="20" height="40" as="alternateBounds" />
          </mxGeometry>
        </mxCell>
        <mxCell id="wyNzjHrCBUUMBbqxbBF1-84" style="shape=partialRectangle;html=1;whiteSpace=wrap;connectable=0;strokeColor=inherit;overflow=hidden;fillColor=none;top=0;left=0;bottom=0;right=0;pointerEvents=1;fontSize=16;" parent="wyNzjHrCBUUMBbqxbBF1-34" vertex="1">
          <mxGeometry x="140" width="20" height="40" as="geometry">
            <mxRectangle width="20" height="40" as="alternateBounds" />
          </mxGeometry>
        </mxCell>
        <mxCell id="wyNzjHrCBUUMBbqxbBF1-81" style="shape=partialRectangle;html=1;whiteSpace=wrap;connectable=0;strokeColor=inherit;overflow=hidden;fillColor=none;top=0;left=0;bottom=0;right=0;pointerEvents=1;fontSize=16;" parent="wyNzjHrCBUUMBbqxbBF1-34" vertex="1">
          <mxGeometry x="160" width="20" height="40" as="geometry">
            <mxRectangle width="20" height="40" as="alternateBounds" />
          </mxGeometry>
        </mxCell>
        <mxCell id="wyNzjHrCBUUMBbqxbBF1-78" style="shape=partialRectangle;html=1;whiteSpace=wrap;connectable=0;strokeColor=inherit;overflow=hidden;fillColor=none;top=0;left=0;bottom=0;right=0;pointerEvents=1;fontSize=16;" parent="wyNzjHrCBUUMBbqxbBF1-34" vertex="1">
          <mxGeometry x="180" width="20" height="40" as="geometry">
            <mxRectangle width="20" height="40" as="alternateBounds" />
          </mxGeometry>
        </mxCell>
        <mxCell id="wyNzjHrCBUUMBbqxbBF1-75" style="shape=partialRectangle;html=1;whiteSpace=wrap;connectable=0;strokeColor=inherit;overflow=hidden;fillColor=none;top=0;left=0;bottom=0;right=0;pointerEvents=1;fontSize=16;" parent="wyNzjHrCBUUMBbqxbBF1-34" vertex="1">
          <mxGeometry x="200" width="20" height="40" as="geometry">
            <mxRectangle width="20" height="40" as="alternateBounds" />
          </mxGeometry>
        </mxCell>
        <mxCell id="wyNzjHrCBUUMBbqxbBF1-72" style="shape=partialRectangle;html=1;whiteSpace=wrap;connectable=0;strokeColor=inherit;overflow=hidden;fillColor=none;top=0;left=0;bottom=0;right=0;pointerEvents=1;fontSize=16;" parent="wyNzjHrCBUUMBbqxbBF1-34" vertex="1">
          <mxGeometry x="220" width="20" height="40" as="geometry">
            <mxRectangle width="20" height="40" as="alternateBounds" />
          </mxGeometry>
        </mxCell>
        <mxCell id="wyNzjHrCBUUMBbqxbBF1-69" style="shape=partialRectangle;html=1;whiteSpace=wrap;connectable=0;strokeColor=inherit;overflow=hidden;fillColor=none;top=0;left=0;bottom=0;right=0;pointerEvents=1;fontSize=16;" parent="wyNzjHrCBUUMBbqxbBF1-34" vertex="1">
          <mxGeometry x="240" width="20" height="40" as="geometry">
            <mxRectangle width="20" height="40" as="alternateBounds" />
          </mxGeometry>
        </mxCell>
        <mxCell id="wyNzjHrCBUUMBbqxbBF1-66" style="shape=partialRectangle;html=1;whiteSpace=wrap;connectable=0;strokeColor=inherit;overflow=hidden;fillColor=none;top=0;left=0;bottom=0;right=0;pointerEvents=1;fontSize=16;" parent="wyNzjHrCBUUMBbqxbBF1-34" vertex="1">
          <mxGeometry x="260" width="20" height="40" as="geometry">
            <mxRectangle width="20" height="40" as="alternateBounds" />
          </mxGeometry>
        </mxCell>
        <mxCell id="wyNzjHrCBUUMBbqxbBF1-63" style="shape=partialRectangle;html=1;whiteSpace=wrap;connectable=0;strokeColor=inherit;overflow=hidden;fillColor=none;top=0;left=0;bottom=0;right=0;pointerEvents=1;fontSize=16;" parent="wyNzjHrCBUUMBbqxbBF1-34" vertex="1">
          <mxGeometry x="280" width="20" height="40" as="geometry">
            <mxRectangle width="20" height="40" as="alternateBounds" />
          </mxGeometry>
        </mxCell>
        <mxCell id="wyNzjHrCBUUMBbqxbBF1-60" style="shape=partialRectangle;html=1;whiteSpace=wrap;connectable=0;strokeColor=inherit;overflow=hidden;fillColor=none;top=0;left=0;bottom=0;right=0;pointerEvents=1;fontSize=16;" parent="wyNzjHrCBUUMBbqxbBF1-34" vertex="1">
          <mxGeometry x="300" width="20" height="40" as="geometry">
            <mxRectangle width="20" height="40" as="alternateBounds" />
          </mxGeometry>
        </mxCell>
        <mxCell id="wyNzjHrCBUUMBbqxbBF1-55" style="shape=partialRectangle;html=1;whiteSpace=wrap;connectable=0;strokeColor=inherit;overflow=hidden;fillColor=none;top=0;left=0;bottom=0;right=0;pointerEvents=1;fontSize=16;" parent="wyNzjHrCBUUMBbqxbBF1-34" vertex="1">
          <mxGeometry x="320" width="20" height="40" as="geometry">
            <mxRectangle width="20" height="40" as="alternateBounds" />
          </mxGeometry>
        </mxCell>
        <mxCell id="wyNzjHrCBUUMBbqxbBF1-52" style="shape=partialRectangle;html=1;whiteSpace=wrap;connectable=0;strokeColor=inherit;overflow=hidden;fillColor=none;top=0;left=0;bottom=0;right=0;pointerEvents=1;fontSize=16;" parent="wyNzjHrCBUUMBbqxbBF1-34" vertex="1">
          <mxGeometry x="340" width="20" height="40" as="geometry">
            <mxRectangle width="20" height="40" as="alternateBounds" />
          </mxGeometry>
        </mxCell>
        <mxCell id="wyNzjHrCBUUMBbqxbBF1-49" style="shape=partialRectangle;html=1;whiteSpace=wrap;connectable=0;strokeColor=inherit;overflow=hidden;fillColor=none;top=0;left=0;bottom=0;right=0;pointerEvents=1;fontSize=16;" parent="wyNzjHrCBUUMBbqxbBF1-34" vertex="1">
          <mxGeometry x="360" width="20" height="40" as="geometry">
            <mxRectangle width="20" height="40" as="alternateBounds" />
          </mxGeometry>
        </mxCell>
        <mxCell id="wyNzjHrCBUUMBbqxbBF1-46" style="shape=partialRectangle;html=1;whiteSpace=wrap;connectable=0;strokeColor=inherit;overflow=hidden;fillColor=none;top=0;left=0;bottom=0;right=0;pointerEvents=1;fontSize=16;" parent="wyNzjHrCBUUMBbqxbBF1-34" vertex="1">
          <mxGeometry x="380" width="20" height="40" as="geometry">
            <mxRectangle width="20" height="40" as="alternateBounds" />
          </mxGeometry>
        </mxCell>
        <mxCell id="wyNzjHrCBUUMBbqxbBF1-43" style="shape=partialRectangle;html=1;whiteSpace=wrap;connectable=0;strokeColor=inherit;overflow=hidden;fillColor=none;top=0;left=0;bottom=0;right=0;pointerEvents=1;fontSize=16;" parent="wyNzjHrCBUUMBbqxbBF1-34" vertex="1">
          <mxGeometry x="400" width="20" height="40" as="geometry">
            <mxRectangle width="20" height="40" as="alternateBounds" />
          </mxGeometry>
        </mxCell>
        <mxCell id="wyNzjHrCBUUMBbqxbBF1-35" value="" style="shape=partialRectangle;html=1;whiteSpace=wrap;connectable=0;strokeColor=inherit;overflow=hidden;fillColor=none;top=0;left=0;bottom=0;right=0;pointerEvents=1;fontSize=16;" parent="wyNzjHrCBUUMBbqxbBF1-34" vertex="1">
          <mxGeometry x="420" width="20" height="40" as="geometry">
            <mxRectangle width="20" height="40" as="alternateBounds" />
          </mxGeometry>
        </mxCell>
        <mxCell id="wyNzjHrCBUUMBbqxbBF1-36" value="" style="shape=partialRectangle;html=1;whiteSpace=wrap;connectable=0;strokeColor=inherit;overflow=hidden;fillColor=none;top=0;left=0;bottom=0;right=0;pointerEvents=1;fontSize=16;" parent="wyNzjHrCBUUMBbqxbBF1-34" vertex="1">
          <mxGeometry x="440" width="20" height="40" as="geometry">
            <mxRectangle width="20" height="40" as="alternateBounds" />
          </mxGeometry>
        </mxCell>
        <mxCell id="wyNzjHrCBUUMBbqxbBF1-38" value="" style="shape=tableRow;horizontal=0;startSize=0;swimlaneHead=0;swimlaneBody=0;strokeColor=inherit;top=0;left=0;bottom=0;right=0;collapsible=0;dropTarget=0;fillColor=none;points=[[0,0.5],[1,0.5]];portConstraint=eastwest;fontSize=16;" parent="wyNzjHrCBUUMBbqxbBF1-29" vertex="1">
          <mxGeometry y="80" width="460" height="40" as="geometry" />
        </mxCell>
        <mxCell id="wyNzjHrCBUUMBbqxbBF1-106" style="shape=partialRectangle;html=1;whiteSpace=wrap;connectable=0;strokeColor=inherit;overflow=hidden;fillColor=none;top=0;left=0;bottom=0;right=0;pointerEvents=1;fontSize=16;" parent="wyNzjHrCBUUMBbqxbBF1-38" vertex="1">
          <mxGeometry width="20" height="40" as="geometry">
            <mxRectangle width="20" height="40" as="alternateBounds" />
          </mxGeometry>
        </mxCell>
        <mxCell id="wyNzjHrCBUUMBbqxbBF1-103" style="shape=partialRectangle;html=1;whiteSpace=wrap;connectable=0;strokeColor=inherit;overflow=hidden;fillColor=none;top=0;left=0;bottom=0;right=0;pointerEvents=1;fontSize=16;" parent="wyNzjHrCBUUMBbqxbBF1-38" vertex="1">
          <mxGeometry x="20" width="20" height="40" as="geometry">
            <mxRectangle width="20" height="40" as="alternateBounds" />
          </mxGeometry>
        </mxCell>
        <mxCell id="wyNzjHrCBUUMBbqxbBF1-100" style="shape=partialRectangle;html=1;whiteSpace=wrap;connectable=0;strokeColor=inherit;overflow=hidden;fillColor=none;top=0;left=0;bottom=0;right=0;pointerEvents=1;fontSize=16;" parent="wyNzjHrCBUUMBbqxbBF1-38" vertex="1">
          <mxGeometry x="40" width="20" height="40" as="geometry">
            <mxRectangle width="20" height="40" as="alternateBounds" />
          </mxGeometry>
        </mxCell>
        <mxCell id="wyNzjHrCBUUMBbqxbBF1-97" style="shape=partialRectangle;html=1;whiteSpace=wrap;connectable=0;strokeColor=inherit;overflow=hidden;fillColor=none;top=0;left=0;bottom=0;right=0;pointerEvents=1;fontSize=16;" parent="wyNzjHrCBUUMBbqxbBF1-38" vertex="1">
          <mxGeometry x="60" width="20" height="40" as="geometry">
            <mxRectangle width="20" height="40" as="alternateBounds" />
          </mxGeometry>
        </mxCell>
        <mxCell id="wyNzjHrCBUUMBbqxbBF1-94" style="shape=partialRectangle;html=1;whiteSpace=wrap;connectable=0;strokeColor=inherit;overflow=hidden;fillColor=none;top=0;left=0;bottom=0;right=0;pointerEvents=1;fontSize=16;" parent="wyNzjHrCBUUMBbqxbBF1-38" vertex="1">
          <mxGeometry x="80" width="20" height="40" as="geometry">
            <mxRectangle width="20" height="40" as="alternateBounds" />
          </mxGeometry>
        </mxCell>
        <mxCell id="wyNzjHrCBUUMBbqxbBF1-91" style="shape=partialRectangle;html=1;whiteSpace=wrap;connectable=0;strokeColor=inherit;overflow=hidden;fillColor=none;top=0;left=0;bottom=0;right=0;pointerEvents=1;fontSize=16;" parent="wyNzjHrCBUUMBbqxbBF1-38" vertex="1">
          <mxGeometry x="100" width="20" height="40" as="geometry">
            <mxRectangle width="20" height="40" as="alternateBounds" />
          </mxGeometry>
        </mxCell>
        <mxCell id="wyNzjHrCBUUMBbqxbBF1-88" style="shape=partialRectangle;html=1;whiteSpace=wrap;connectable=0;strokeColor=inherit;overflow=hidden;fillColor=none;top=0;left=0;bottom=0;right=0;pointerEvents=1;fontSize=16;" parent="wyNzjHrCBUUMBbqxbBF1-38" vertex="1">
          <mxGeometry x="120" width="20" height="40" as="geometry">
            <mxRectangle width="20" height="40" as="alternateBounds" />
          </mxGeometry>
        </mxCell>
        <mxCell id="wyNzjHrCBUUMBbqxbBF1-85" style="shape=partialRectangle;html=1;whiteSpace=wrap;connectable=0;strokeColor=inherit;overflow=hidden;fillColor=none;top=0;left=0;bottom=0;right=0;pointerEvents=1;fontSize=16;" parent="wyNzjHrCBUUMBbqxbBF1-38" vertex="1">
          <mxGeometry x="140" width="20" height="40" as="geometry">
            <mxRectangle width="20" height="40" as="alternateBounds" />
          </mxGeometry>
        </mxCell>
        <mxCell id="wyNzjHrCBUUMBbqxbBF1-82" style="shape=partialRectangle;html=1;whiteSpace=wrap;connectable=0;strokeColor=inherit;overflow=hidden;fillColor=none;top=0;left=0;bottom=0;right=0;pointerEvents=1;fontSize=16;" parent="wyNzjHrCBUUMBbqxbBF1-38" vertex="1">
          <mxGeometry x="160" width="20" height="40" as="geometry">
            <mxRectangle width="20" height="40" as="alternateBounds" />
          </mxGeometry>
        </mxCell>
        <mxCell id="wyNzjHrCBUUMBbqxbBF1-79" style="shape=partialRectangle;html=1;whiteSpace=wrap;connectable=0;strokeColor=inherit;overflow=hidden;fillColor=none;top=0;left=0;bottom=0;right=0;pointerEvents=1;fontSize=16;" parent="wyNzjHrCBUUMBbqxbBF1-38" vertex="1">
          <mxGeometry x="180" width="20" height="40" as="geometry">
            <mxRectangle width="20" height="40" as="alternateBounds" />
          </mxGeometry>
        </mxCell>
        <mxCell id="wyNzjHrCBUUMBbqxbBF1-76" style="shape=partialRectangle;html=1;whiteSpace=wrap;connectable=0;strokeColor=inherit;overflow=hidden;fillColor=none;top=0;left=0;bottom=0;right=0;pointerEvents=1;fontSize=16;" parent="wyNzjHrCBUUMBbqxbBF1-38" vertex="1">
          <mxGeometry x="200" width="20" height="40" as="geometry">
            <mxRectangle width="20" height="40" as="alternateBounds" />
          </mxGeometry>
        </mxCell>
        <mxCell id="wyNzjHrCBUUMBbqxbBF1-73" style="shape=partialRectangle;html=1;whiteSpace=wrap;connectable=0;strokeColor=inherit;overflow=hidden;fillColor=none;top=0;left=0;bottom=0;right=0;pointerEvents=1;fontSize=16;" parent="wyNzjHrCBUUMBbqxbBF1-38" vertex="1">
          <mxGeometry x="220" width="20" height="40" as="geometry">
            <mxRectangle width="20" height="40" as="alternateBounds" />
          </mxGeometry>
        </mxCell>
        <mxCell id="wyNzjHrCBUUMBbqxbBF1-70" style="shape=partialRectangle;html=1;whiteSpace=wrap;connectable=0;strokeColor=inherit;overflow=hidden;fillColor=none;top=0;left=0;bottom=0;right=0;pointerEvents=1;fontSize=16;" parent="wyNzjHrCBUUMBbqxbBF1-38" vertex="1">
          <mxGeometry x="240" width="20" height="40" as="geometry">
            <mxRectangle width="20" height="40" as="alternateBounds" />
          </mxGeometry>
        </mxCell>
        <mxCell id="wyNzjHrCBUUMBbqxbBF1-67" style="shape=partialRectangle;html=1;whiteSpace=wrap;connectable=0;strokeColor=inherit;overflow=hidden;fillColor=none;top=0;left=0;bottom=0;right=0;pointerEvents=1;fontSize=16;" parent="wyNzjHrCBUUMBbqxbBF1-38" vertex="1">
          <mxGeometry x="260" width="20" height="40" as="geometry">
            <mxRectangle width="20" height="40" as="alternateBounds" />
          </mxGeometry>
        </mxCell>
        <mxCell id="wyNzjHrCBUUMBbqxbBF1-64" style="shape=partialRectangle;html=1;whiteSpace=wrap;connectable=0;strokeColor=inherit;overflow=hidden;fillColor=none;top=0;left=0;bottom=0;right=0;pointerEvents=1;fontSize=16;" parent="wyNzjHrCBUUMBbqxbBF1-38" vertex="1">
          <mxGeometry x="280" width="20" height="40" as="geometry">
            <mxRectangle width="20" height="40" as="alternateBounds" />
          </mxGeometry>
        </mxCell>
        <mxCell id="wyNzjHrCBUUMBbqxbBF1-61" style="shape=partialRectangle;html=1;whiteSpace=wrap;connectable=0;strokeColor=inherit;overflow=hidden;fillColor=none;top=0;left=0;bottom=0;right=0;pointerEvents=1;fontSize=16;" parent="wyNzjHrCBUUMBbqxbBF1-38" vertex="1">
          <mxGeometry x="300" width="20" height="40" as="geometry">
            <mxRectangle width="20" height="40" as="alternateBounds" />
          </mxGeometry>
        </mxCell>
        <mxCell id="wyNzjHrCBUUMBbqxbBF1-56" style="shape=partialRectangle;html=1;whiteSpace=wrap;connectable=0;strokeColor=inherit;overflow=hidden;fillColor=none;top=0;left=0;bottom=0;right=0;pointerEvents=1;fontSize=16;" parent="wyNzjHrCBUUMBbqxbBF1-38" vertex="1">
          <mxGeometry x="320" width="20" height="40" as="geometry">
            <mxRectangle width="20" height="40" as="alternateBounds" />
          </mxGeometry>
        </mxCell>
        <mxCell id="wyNzjHrCBUUMBbqxbBF1-53" style="shape=partialRectangle;html=1;whiteSpace=wrap;connectable=0;strokeColor=inherit;overflow=hidden;fillColor=none;top=0;left=0;bottom=0;right=0;pointerEvents=1;fontSize=16;" parent="wyNzjHrCBUUMBbqxbBF1-38" vertex="1">
          <mxGeometry x="340" width="20" height="40" as="geometry">
            <mxRectangle width="20" height="40" as="alternateBounds" />
          </mxGeometry>
        </mxCell>
        <mxCell id="wyNzjHrCBUUMBbqxbBF1-50" style="shape=partialRectangle;html=1;whiteSpace=wrap;connectable=0;strokeColor=inherit;overflow=hidden;fillColor=none;top=0;left=0;bottom=0;right=0;pointerEvents=1;fontSize=16;" parent="wyNzjHrCBUUMBbqxbBF1-38" vertex="1">
          <mxGeometry x="360" width="20" height="40" as="geometry">
            <mxRectangle width="20" height="40" as="alternateBounds" />
          </mxGeometry>
        </mxCell>
        <mxCell id="wyNzjHrCBUUMBbqxbBF1-47" style="shape=partialRectangle;html=1;whiteSpace=wrap;connectable=0;strokeColor=inherit;overflow=hidden;fillColor=none;top=0;left=0;bottom=0;right=0;pointerEvents=1;fontSize=16;" parent="wyNzjHrCBUUMBbqxbBF1-38" vertex="1">
          <mxGeometry x="380" width="20" height="40" as="geometry">
            <mxRectangle width="20" height="40" as="alternateBounds" />
          </mxGeometry>
        </mxCell>
        <mxCell id="wyNzjHrCBUUMBbqxbBF1-44" style="shape=partialRectangle;html=1;whiteSpace=wrap;connectable=0;strokeColor=inherit;overflow=hidden;fillColor=none;top=0;left=0;bottom=0;right=0;pointerEvents=1;fontSize=16;" parent="wyNzjHrCBUUMBbqxbBF1-38" vertex="1">
          <mxGeometry x="400" width="20" height="40" as="geometry">
            <mxRectangle width="20" height="40" as="alternateBounds" />
          </mxGeometry>
        </mxCell>
        <mxCell id="wyNzjHrCBUUMBbqxbBF1-39" value="" style="shape=partialRectangle;html=1;whiteSpace=wrap;connectable=0;strokeColor=inherit;overflow=hidden;fillColor=none;top=0;left=0;bottom=0;right=0;pointerEvents=1;fontSize=16;" parent="wyNzjHrCBUUMBbqxbBF1-38" vertex="1">
          <mxGeometry x="420" width="20" height="40" as="geometry">
            <mxRectangle width="20" height="40" as="alternateBounds" />
          </mxGeometry>
        </mxCell>
        <mxCell id="wyNzjHrCBUUMBbqxbBF1-40" value="" style="shape=partialRectangle;html=1;whiteSpace=wrap;connectable=0;strokeColor=inherit;overflow=hidden;fillColor=none;top=0;left=0;bottom=0;right=0;pointerEvents=1;fontSize=16;" parent="wyNzjHrCBUUMBbqxbBF1-38" vertex="1">
          <mxGeometry x="440" width="20" height="40" as="geometry">
            <mxRectangle width="20" height="40" as="alternateBounds" />
          </mxGeometry>
        </mxCell>
        <mxCell id="wyNzjHrCBUUMBbqxbBF1-57" value="Time" style="text;html=1;align=center;verticalAlign=middle;resizable=0;points=[];autosize=1;strokeColor=none;fillColor=none;fontSize=20;fontFamily=Times New Roman;" parent="1" vertex="1">
          <mxGeometry x="1125" y="435" width="70" height="40" as="geometry" />
        </mxCell>
        <mxCell id="wyNzjHrCBUUMBbqxbBF1-58" value="frequency" style="text;html=1;align=center;verticalAlign=middle;resizable=0;points=[];autosize=1;strokeColor=none;fillColor=none;fontSize=20;fontFamily=Times New Roman;rotation=-90;" parent="1" vertex="1">
          <mxGeometry x="640" y="350" width="100" height="40" as="geometry" />
        </mxCell>
        <mxCell id="BnJvv2Z-PQd2QAyjViYM-1" value="(a)" style="text;html=1;align=center;verticalAlign=middle;resizable=0;points=[];autosize=1;strokeColor=none;fillColor=none;fontFamily=Times New Roman;fontSize=22;fontStyle=1" parent="1" vertex="1">
          <mxGeometry x="335" y="423" width="50" height="40" as="geometry" />
        </mxCell>
        <mxCell id="BnJvv2Z-PQd2QAyjViYM-4" value="(b)" style="text;html=1;align=center;verticalAlign=middle;resizable=0;points=[];autosize=1;strokeColor=none;fillColor=none;fontFamily=Times New Roman;fontSize=22;fontStyle=1" parent="1" vertex="1">
          <mxGeometry x="920" y="440" width="50" height="40" as="geometry" />
        </mxCell>
        <mxCell id="BnJvv2Z-PQd2QAyjViYM-7" value="" style="rounded=1;whiteSpace=wrap;html=1;strokeColor=none;fillColor=none;" parent="1" vertex="1">
          <mxGeometry x="675" y="300" width="30" height="120" as="geometry" />
        </mxCell>
        <mxCell id="BnJvv2Z-PQd2QAyjViYM-8" value="" style="rounded=1;whiteSpace=wrap;html=1;strokeColor=none;fillColor=none;" parent="1" vertex="1">
          <mxGeometry x="110" y="290" width="30" height="120" as="geometry" />
        </mxCell>
        <mxCell id="BnJvv2Z-PQd2QAyjViYM-13" value="" style="edgeStyle=orthogonalEdgeStyle;rounded=0;orthogonalLoop=1;jettySize=auto;html=1;curved=0;strokeWidth=3;" parent="1" source="BnJvv2Z-PQd2QAyjViYM-9" target="BnJvv2Z-PQd2QAyjViYM-12" edge="1">
          <mxGeometry relative="1" as="geometry" />
        </mxCell>
        <mxCell id="BnJvv2Z-PQd2QAyjViYM-9" value="Dataset" style="rounded=1;whiteSpace=wrap;html=1;fontSize=32;fontFamily=Comic Sans MS;fillColor=none;strokeWidth=3;" parent="1" vertex="1">
          <mxGeometry x="1060" y="1180" width="220" height="70" as="geometry" />
        </mxCell>
        <mxCell id="AOGBw6PcPAn47BEcl0vw-3" value="" style="edgeStyle=orthogonalEdgeStyle;rounded=1;orthogonalLoop=1;jettySize=auto;html=1;strokeWidth=3;curved=0;" edge="1" parent="1" source="BnJvv2Z-PQd2QAyjViYM-12" target="AOGBw6PcPAn47BEcl0vw-1">
          <mxGeometry relative="1" as="geometry">
            <Array as="points">
              <mxPoint x="1790" y="1215" />
              <mxPoint x="1790" y="1020" />
            </Array>
          </mxGeometry>
        </mxCell>
        <mxCell id="AOGBw6PcPAn47BEcl0vw-6" value="" style="edgeStyle=orthogonalEdgeStyle;rounded=1;orthogonalLoop=1;jettySize=auto;html=1;strokeWidth=3;curved=0;" edge="1" parent="1" source="BnJvv2Z-PQd2QAyjViYM-12" target="AOGBw6PcPAn47BEcl0vw-5">
          <mxGeometry relative="1" as="geometry">
            <Array as="points">
              <mxPoint x="1790" y="1215" />
              <mxPoint x="1790" y="1360" />
            </Array>
          </mxGeometry>
        </mxCell>
        <mxCell id="BnJvv2Z-PQd2QAyjViYM-12" value="Spectrogram Conversion&lt;br&gt;&lt;ul&gt;&lt;li style=&quot;text-align: left;&quot;&gt;hamming&lt;/li&gt;&lt;li style=&quot;text-align: left;&quot;&gt;hann&lt;/li&gt;&lt;li style=&quot;text-align: left;&quot;&gt;boxcar&lt;/li&gt;&lt;li style=&quot;text-align: left;&quot;&gt;bartlett&lt;/li&gt;&lt;li style=&quot;text-align: left;&quot;&gt;blackman&lt;/li&gt;&lt;li style=&quot;text-align: left;&quot;&gt;blackmanharris&lt;/li&gt;&lt;li style=&quot;text-align: left;&quot;&gt;taylor&lt;/li&gt;&lt;li style=&quot;text-align: left;&quot;&gt;tukey&lt;/li&gt;&lt;/ul&gt;" style="rounded=1;whiteSpace=wrap;html=1;fontSize=32;fillColor=none;glass=1;fillStyle=zigzag-line;fontFamily=Comic Sans MS;strokeWidth=3;" parent="1" vertex="1">
          <mxGeometry x="1350" y="990" width="390" height="450" as="geometry" />
        </mxCell>
        <mxCell id="AOGBw6PcPAn47BEcl0vw-10" style="edgeStyle=orthogonalEdgeStyle;rounded=1;orthogonalLoop=1;jettySize=auto;html=1;curved=0;strokeWidth=3;" edge="1" parent="1" source="AOGBw6PcPAn47BEcl0vw-1" target="AOGBw6PcPAn47BEcl0vw-7">
          <mxGeometry relative="1" as="geometry" />
        </mxCell>
        <mxCell id="AOGBw6PcPAn47BEcl0vw-11" style="edgeStyle=orthogonalEdgeStyle;rounded=1;orthogonalLoop=1;jettySize=auto;html=1;curved=0;strokeWidth=3;" edge="1" parent="1" source="AOGBw6PcPAn47BEcl0vw-1" target="AOGBw6PcPAn47BEcl0vw-9">
          <mxGeometry relative="1" as="geometry" />
        </mxCell>
        <mxCell id="AOGBw6PcPAn47BEcl0vw-1" value="Feature Extraction&lt;br&gt;&lt;ul&gt;&lt;li style=&quot;text-align: left;&quot;&gt;bmin&lt;/li&gt;&lt;li style=&quot;text-align: left;&quot;&gt;bmax&lt;/li&gt;&lt;li style=&quot;text-align: left;&quot;&gt;bmedian&lt;/li&gt;&lt;li style=&quot;text-align: left;&quot;&gt;bmean&lt;/li&gt;&lt;/ul&gt;" style="rounded=1;whiteSpace=wrap;html=1;fontSize=32;fontFamily=Comic Sans MS;fillColor=none;strokeWidth=3;" vertex="1" parent="1">
          <mxGeometry x="1820" y="880" width="340" height="260" as="geometry" />
        </mxCell>
        <mxCell id="AOGBw6PcPAn47BEcl0vw-5" value="Image Extraction&lt;br&gt;&lt;ul&gt;&lt;li style=&quot;text-align: left;&quot;&gt;window&lt;/li&gt;&lt;ul&gt;&lt;li style=&quot;text-align: left;&quot;&gt;train&lt;/li&gt;&lt;ul&gt;&lt;li style=&quot;text-align: left;&quot;&gt;healthy&lt;/li&gt;&lt;li style=&quot;text-align: left;&quot;&gt;unhealthy&lt;/li&gt;&lt;/ul&gt;&lt;li style=&quot;text-align: left;&quot;&gt;val&lt;/li&gt;&lt;ul&gt;&lt;li style=&quot;text-align: left;&quot;&gt;healthy&lt;/li&gt;&lt;li style=&quot;text-align: left;&quot;&gt;unhealthy&lt;/li&gt;&lt;/ul&gt;&lt;li style=&quot;text-align: left;&quot;&gt;test&lt;/li&gt;&lt;ul&gt;&lt;li style=&quot;text-align: left;&quot;&gt;healthy&lt;/li&gt;&lt;li style=&quot;text-align: left;&quot;&gt;unhealthy&lt;/li&gt;&lt;/ul&gt;&lt;/ul&gt;&lt;/ul&gt;" style="rounded=1;whiteSpace=wrap;html=1;fontSize=32;fillColor=none;glass=1;fillStyle=zigzag-line;fontFamily=Comic Sans MS;strokeWidth=3;" vertex="1" parent="1">
          <mxGeometry x="1815" y="1220" width="350" height="510" as="geometry" />
        </mxCell>
        <mxCell id="AOGBw6PcPAn47BEcl0vw-13" value="" style="edgeStyle=orthogonalEdgeStyle;rounded=0;orthogonalLoop=1;jettySize=auto;html=1;strokeWidth=3;" edge="1" parent="1" source="AOGBw6PcPAn47BEcl0vw-7" target="AOGBw6PcPAn47BEcl0vw-12">
          <mxGeometry relative="1" as="geometry" />
        </mxCell>
        <mxCell id="AOGBw6PcPAn47BEcl0vw-7" value="Train" style="rounded=1;whiteSpace=wrap;html=1;fontSize=32;fontFamily=Comic Sans MS;fillColor=none;strokeWidth=3;" vertex="1" parent="1">
          <mxGeometry x="2300" y="975" width="220" height="70" as="geometry" />
        </mxCell>
        <mxCell id="AOGBw6PcPAn47BEcl0vw-15" style="edgeStyle=orthogonalEdgeStyle;rounded=1;orthogonalLoop=1;jettySize=auto;html=1;curved=0;strokeWidth=3;" edge="1" parent="1" source="AOGBw6PcPAn47BEcl0vw-9" target="AOGBw6PcPAn47BEcl0vw-14">
          <mxGeometry relative="1" as="geometry" />
        </mxCell>
        <mxCell id="AOGBw6PcPAn47BEcl0vw-9" value="Test" style="rounded=1;whiteSpace=wrap;html=1;fontSize=32;fontFamily=Comic Sans MS;fillColor=none;strokeWidth=3;" vertex="1" parent="1">
          <mxGeometry x="2300" y="840" width="220" height="70" as="geometry" />
        </mxCell>
        <mxCell id="AOGBw6PcPAn47BEcl0vw-16" style="edgeStyle=orthogonalEdgeStyle;rounded=1;orthogonalLoop=1;jettySize=auto;html=1;curved=0;strokeWidth=3;" edge="1" parent="1" source="AOGBw6PcPAn47BEcl0vw-12" target="AOGBw6PcPAn47BEcl0vw-14">
          <mxGeometry relative="1" as="geometry" />
        </mxCell>
        <mxCell id="AOGBw6PcPAn47BEcl0vw-12" value="Cross-Validation" style="rounded=1;whiteSpace=wrap;html=1;fontSize=32;fontFamily=Comic Sans MS;fillColor=none;strokeWidth=3;" vertex="1" parent="1">
          <mxGeometry x="2280" y="1110" width="260" height="70" as="geometry" />
        </mxCell>
        <mxCell id="AOGBw6PcPAn47BEcl0vw-14" value="Model Evaluation" style="rounded=1;whiteSpace=wrap;html=1;fontSize=32;fontFamily=Comic Sans MS;fillColor=none;strokeWidth=3;" vertex="1" parent="1">
          <mxGeometry x="2635" y="975" width="260" height="70" as="geometry" />
        </mxCell>
        <mxCell id="AOGBw6PcPAn47BEcl0vw-25" style="edgeStyle=orthogonalEdgeStyle;rounded=1;orthogonalLoop=1;jettySize=auto;html=1;curved=0;strokeWidth=3;" edge="1" parent="1" target="AOGBw6PcPAn47BEcl0vw-28">
          <mxGeometry relative="1" as="geometry">
            <mxPoint x="2170" y="1470" as="sourcePoint" />
          </mxGeometry>
        </mxCell>
        <mxCell id="AOGBw6PcPAn47BEcl0vw-26" style="edgeStyle=orthogonalEdgeStyle;rounded=1;orthogonalLoop=1;jettySize=auto;html=1;curved=0;strokeWidth=3;" edge="1" parent="1" target="AOGBw6PcPAn47BEcl0vw-30" source="AOGBw6PcPAn47BEcl0vw-5">
          <mxGeometry relative="1" as="geometry">
            <mxPoint x="2170" y="1470" as="sourcePoint" />
            <Array as="points">
              <mxPoint x="2250" y="1471" />
              <mxPoint x="2250" y="1335" />
            </Array>
          </mxGeometry>
        </mxCell>
        <mxCell id="AOGBw6PcPAn47BEcl0vw-27" value="" style="edgeStyle=orthogonalEdgeStyle;rounded=0;orthogonalLoop=1;jettySize=auto;html=1;strokeWidth=3;" edge="1" parent="1" source="AOGBw6PcPAn47BEcl0vw-28" target="AOGBw6PcPAn47BEcl0vw-32">
          <mxGeometry relative="1" as="geometry" />
        </mxCell>
        <mxCell id="AOGBw6PcPAn47BEcl0vw-28" value="Train" style="rounded=1;whiteSpace=wrap;html=1;fontSize=32;fontFamily=Comic Sans MS;fillColor=none;strokeWidth=3;" vertex="1" parent="1">
          <mxGeometry x="2310" y="1435" width="220" height="70" as="geometry" />
        </mxCell>
        <mxCell id="AOGBw6PcPAn47BEcl0vw-29" style="edgeStyle=orthogonalEdgeStyle;rounded=1;orthogonalLoop=1;jettySize=auto;html=1;curved=0;strokeWidth=3;" edge="1" parent="1" source="AOGBw6PcPAn47BEcl0vw-30" target="AOGBw6PcPAn47BEcl0vw-33">
          <mxGeometry relative="1" as="geometry" />
        </mxCell>
        <mxCell id="AOGBw6PcPAn47BEcl0vw-30" value="Test" style="rounded=1;whiteSpace=wrap;html=1;fontSize=32;fontFamily=Comic Sans MS;fillColor=none;strokeWidth=3;" vertex="1" parent="1">
          <mxGeometry x="2310" y="1300" width="220" height="70" as="geometry" />
        </mxCell>
        <mxCell id="AOGBw6PcPAn47BEcl0vw-31" style="edgeStyle=orthogonalEdgeStyle;rounded=1;orthogonalLoop=1;jettySize=auto;html=1;curved=0;strokeWidth=3;" edge="1" parent="1" source="AOGBw6PcPAn47BEcl0vw-32" target="AOGBw6PcPAn47BEcl0vw-33">
          <mxGeometry relative="1" as="geometry" />
        </mxCell>
        <mxCell id="AOGBw6PcPAn47BEcl0vw-32" value="Cross-Validation" style="rounded=1;whiteSpace=wrap;html=1;fontSize=32;fontFamily=Comic Sans MS;fillColor=none;strokeWidth=3;" vertex="1" parent="1">
          <mxGeometry x="2290" y="1570" width="260" height="70" as="geometry" />
        </mxCell>
        <mxCell id="AOGBw6PcPAn47BEcl0vw-33" value="Model Evaluation" style="rounded=1;whiteSpace=wrap;html=1;fontSize=32;fontFamily=Comic Sans MS;fillColor=none;strokeWidth=3;" vertex="1" parent="1">
          <mxGeometry x="2645" y="1435" width="260" height="70" as="geometry" />
        </mxCell>
      </root>
    </mxGraphModel>
  </diagram>
</mxfile>
